<?xml version="1.0" encoding="UTF-8" standalone="no"?>
<!-- Created with Inkscape (http://www.inkscape.org/) -->

<svg
   xmlns:dc="http://purl.org/dc/elements/1.1/"
   xmlns:cc="http://creativecommons.org/ns#"
   xmlns:rdf="http://www.w3.org/1999/02/22-rdf-syntax-ns#"
   xmlns:svg="http://www.w3.org/2000/svg"
   xmlns="http://www.w3.org/2000/svg"
   xmlns:sodipodi="http://sodipodi.sourceforge.net/DTD/sodipodi-0.dtd"
   xmlns:inkscape="http://www.inkscape.org/namespaces/inkscape"
   width="48mm"
   height="48mm"
   viewBox="0 0 48 48"
   version="1.1"
   id="svg8"
   sodipodi:docname="logical-invert.svg"
   inkscape:version="0.92.3 (2405546, 2018-03-11)"
   inkscape:export-filename="/home/luca/Dropbox/MATLAB scripts/VolumeCut/VolumeCut_resources/48px-logical-invert.png"
   inkscape:export-xdpi="25.4"
   inkscape:export-ydpi="25.4">
  <defs
     id="defs2" />
  <sodipodi:namedview
     id="base"
     pagecolor="#ffffff"
     bordercolor="#666666"
     borderopacity="1.0"
     inkscape:pageopacity="0.0"
     inkscape:pageshadow="2"
     inkscape:zoom="3.2272795"
     inkscape:cx="72.920593"
     inkscape:cy="92.958009"
     inkscape:document-units="mm"
     inkscape:current-layer="layer1"
     showgrid="false"
     inkscape:window-width="1853"
     inkscape:window-height="1016"
     inkscape:window-x="67"
     inkscape:window-y="27"
     inkscape:window-maximized="1" />
  <metadata
     id="metadata5">
    <rdf:RDF>
      <cc:Work
         rdf:about="">
        <dc:format>image/svg+xml</dc:format>
        <dc:type
           rdf:resource="http://purl.org/dc/dcmitype/StillImage" />
        <dc:title></dc:title>
      </cc:Work>
    </rdf:RDF>
  </metadata>
  <g
     inkscape:label="Layer 1"
     inkscape:groupmode="layer"
     id="layer1"
     transform="translate(0,-249)">
    <path
       style="opacity:1;fill:#f08080;fill-opacity:1;stroke:#000000;stroke-width:2.757828;stroke-linecap:butt;stroke-miterlimit:4;stroke-dasharray:none;stroke-dashoffset:0;stroke-opacity:1"
       d="M 90.324219 4.5449219 A 86.239504 86.239504 0 0 0 4.0839844 90.783203 A 86.239504 86.239504 0 0 0 90.324219 177.02344 A 86.239504 86.239504 0 0 0 176.5625 90.783203 A 86.239504 86.239504 0 0 0 90.324219 4.5449219 z M 63.056641 32.417969 A 32.957272 58.520601 0 0 1 91.792969 62.431641 A 47.772328 35.84278 26.658666 0 1 121.58789 68.822266 A 47.772328 35.84278 26.658666 0 1 148.20117 122.28906 A 47.772328 35.84278 26.658666 0 1 89.425781 132.88672 A 47.772328 35.84278 26.658666 0 1 86.794922 131.43945 A 32.957272 58.520601 0 0 1 63.056641 149.45898 A 32.957272 58.520601 0 0 1 30.099609 90.939453 A 32.957272 58.520601 0 0 1 63.056641 32.417969 z "
       transform="matrix(0.26458333,0,0,0.26458333,0,249)"
       id="path10" />
  </g>
</svg>
