<?xml version="1.0" encoding="UTF-8" standalone="no"?>
<!-- Created with Inkscape (http://www.inkscape.org/) -->

<svg
   xmlns:dc="http://purl.org/dc/elements/1.1/"
   xmlns:cc="http://creativecommons.org/ns#"
   xmlns:rdf="http://www.w3.org/1999/02/22-rdf-syntax-ns#"
   xmlns:svg="http://www.w3.org/2000/svg"
   xmlns="http://www.w3.org/2000/svg"
   xmlns:xlink="http://www.w3.org/1999/xlink"
   xmlns:sodipodi="http://sodipodi.sourceforge.net/DTD/sodipodi-0.dtd"
   xmlns:inkscape="http://www.inkscape.org/namespaces/inkscape"
   version="1.0"
   width="48"
   height="48"
   id="svg2228"
   sodipodi:docname="open-skel.svg"
   inkscape:version="0.92.3 (2405546, 2018-03-11)"
   inkscape:export-filename="/home/luca/Dropbox/MATLAB scripts/VolumeCut/VolumeCut_resources/48px-open-skel.png"
   inkscape:export-xdpi="96"
   inkscape:export-ydpi="96">
  <metadata
     id="metadata63">
    <rdf:RDF>
      <cc:Work
         rdf:about="">
        <dc:format>image/svg+xml</dc:format>
        <dc:type
           rdf:resource="http://purl.org/dc/dcmitype/StillImage" />
        <dc:title></dc:title>
      </cc:Work>
    </rdf:RDF>
  </metadata>
  <sodipodi:namedview
     pagecolor="#ffffff"
     bordercolor="#666666"
     borderopacity="1"
     objecttolerance="10"
     gridtolerance="10"
     guidetolerance="10"
     inkscape:pageopacity="0"
     inkscape:pageshadow="2"
     inkscape:window-width="1853"
     inkscape:window-height="1016"
     id="namedview61"
     showgrid="false"
     inkscape:zoom="12.197592"
     inkscape:cx="0.52523263"
     inkscape:cy="22.114382"
     inkscape:window-x="67"
     inkscape:window-y="27"
     inkscape:window-maximized="1"
     inkscape:current-layer="layer1" />
  <defs
     id="defs2230">
    <linearGradient
       id="linearGradient8650">
      <stop
         id="stop8652"
         style="stop-color:#ffffff;stop-opacity:1"
         offset="0" />
      <stop
         id="stop8654"
         style="stop-color:#ffffff;stop-opacity:0"
         offset="1" />
    </linearGradient>
    <linearGradient
       id="linearGradient2304">
      <stop
         id="stop2306"
         style="stop-color:#73d216;stop-opacity:1"
         offset="0" />
      <stop
         id="stop2308"
         style="stop-color:#4e9a06;stop-opacity:1"
         offset="1" />
    </linearGradient>
    <linearGradient
       id="linearGradient8662">
      <stop
         id="stop8664"
         style="stop-color:#000000;stop-opacity:1"
         offset="0" />
      <stop
         id="stop8666"
         style="stop-color:#000000;stop-opacity:0"
         offset="1" />
    </linearGradient>
    <radialGradient
       cx="24.837126"
       cy="36.421127"
       r="15.644737"
       fx="24.837126"
       fy="36.421127"
       id="radialGradient1444"
       xlink:href="#linearGradient8662"
       gradientUnits="userSpaceOnUse"
       gradientTransform="matrix(1,0,0,0.536723,0,16.87306)" />
    <linearGradient
       id="linearGradient5589">
      <stop
         id="stop5591"
         style="stop-color:#ececea;stop-opacity:1"
         offset="0" />
      <stop
         id="stop5593"
         style="stop-color:#d6d9d2;stop-opacity:1"
         offset="1" />
    </linearGradient>
    <linearGradient
       id="linearGradient4616">
      <stop
         id="stop4618"
         style="stop-color:#2e3436;stop-opacity:1"
         offset="0" />
      <stop
         id="stop4620"
         style="stop-color:#2e3436;stop-opacity:0"
         offset="1" />
    </linearGradient>
    <linearGradient
       id="linearGradient4928">
      <stop
         id="stop4930"
         style="stop-color:#fce94f;stop-opacity:1"
         offset="0" />
      <stop
         id="stop4932"
         style="stop-color:#fce94f;stop-opacity:0"
         offset="1" />
    </linearGradient>
    <linearGradient
       id="linearGradient2065">
      <stop
         id="stop2067"
         style="stop-color:#555753;stop-opacity:1"
         offset="0" />
      <stop
         id="stop2069"
         style="stop-color:#fcaf3e;stop-opacity:1"
         offset="1" />
    </linearGradient>
    <linearGradient
       id="linearGradient5048">
      <stop
         id="stop5050"
         style="stop-color:#000000;stop-opacity:0"
         offset="0" />
      <stop
         id="stop5056"
         style="stop-color:#000000;stop-opacity:1"
         offset="0.5" />
      <stop
         id="stop5052"
         style="stop-color:#000000;stop-opacity:0"
         offset="1" />
    </linearGradient>
    <linearGradient
       id="linearGradient5060">
      <stop
         id="stop5062"
         style="stop-color:#000000;stop-opacity:1"
         offset="0" />
      <stop
         id="stop5064"
         style="stop-color:#000000;stop-opacity:0"
         offset="1" />
    </linearGradient>
    <linearGradient
       x1="302.85715"
       y1="366.64789"
       x2="302.85715"
       y2="609.50507"
       id="linearGradient3395"
       xlink:href="#linearGradient5048"
       gradientUnits="userSpaceOnUse"
       gradientTransform="matrix(2.774389,0,0,1.969706,-1892.179,-872.8854)" />
    <radialGradient
       cx="605.71429"
       cy="486.64789"
       r="117.14286"
       fx="605.71429"
       fy="486.64789"
       id="radialGradient3397"
       xlink:href="#linearGradient5060"
       gradientUnits="userSpaceOnUse"
       gradientTransform="matrix(2.774389,0,0,1.969706,-1891.633,-872.8854)" />
    <radialGradient
       cx="605.71429"
       cy="486.64789"
       r="117.14286"
       fx="605.71429"
       fy="486.64789"
       id="radialGradient3399"
       xlink:href="#linearGradient5060"
       gradientUnits="userSpaceOnUse"
       gradientTransform="matrix(-2.774389,0,0,1.969706,112.7623,-872.8854)" />
    <linearGradient
       x1="-11.986486"
       y1="13.122552"
       x2="-11.986486"
       y2="29.726542"
       id="linearGradient3420"
       xlink:href="#linearGradient2065"
       gradientUnits="userSpaceOnUse"
       gradientTransform="matrix(0.9849543,0,0,0.9375009,35.806113,0.4687552)" />
    <linearGradient
       x1="12.8125"
       y1="3.9999673"
       x2="12.8125"
       y2="25.985226"
       id="linearGradient3424"
       xlink:href="#linearGradient5589"
       gradientUnits="userSpaceOnUse"
       gradientTransform="matrix(1.5,0,0,1.5,-1.5e-6,1.7e-6)" />
    <radialGradient
       cx="-6.0070167"
       cy="32.837029"
       r="9.90625"
       fx="-6.0070167"
       fy="32.837029"
       id="radialGradient3442"
       xlink:href="#linearGradient4928"
       gradientUnits="userSpaceOnUse"
       gradientTransform="matrix(1.0599371,0,0,0.9580053,24.255771,0.9423466)" />
    <linearGradient
       x1="25.355263"
       y1="34.006802"
       x2="25.355263"
       y2="32.409008"
       id="linearGradient3444"
       xlink:href="#linearGradient4616"
       gradientUnits="userSpaceOnUse"
       gradientTransform="matrix(0.9705893,0,0,0.7499994,0.7058828,6.7500179)" />
    <radialGradient
       cx="24.53788"
       cy="0.40010813"
       r="17.171415"
       fx="24.53788"
       fy="0.40010813"
       id="radialGradient3584"
       xlink:href="#linearGradient8650"
       gradientUnits="userSpaceOnUse"
       gradientTransform="matrix(0,-1.2926709,0.9837536,0,21.589692,62.115421)" />
    <radialGradient
       cx="11.319205"
       cy="22.454971"
       r="16.9562"
       fx="11.319205"
       fy="22.454971"
       id="radialGradient3587"
       xlink:href="#linearGradient2304"
       gradientUnits="userSpaceOnUse"
       gradientTransform="matrix(0,-0.5690524,0.6886286,0,19.230096,47.632812)" />
    <radialGradient
       id="e"
       cx="24.313"
       cy="41.155998"
       r="22.875"
       fx="24.313"
       fy="41.155998"
       gradientTransform="matrix(0.91803,0,0,0.26407574,94.626155,19.737428)"
       gradientUnits="userSpaceOnUse"
       xlink:href="#linearGradient8662" />
    <linearGradient
       id="f"
       x1="40.884998"
       x2="16.879999"
       y1="71.869003"
       y2="-0.389"
       gradientTransform="matrix(0.97661,0,0,1.13979,93.510155,-13.696669)"
       gradientUnits="userSpaceOnUse"
       xlink:href="#a" />
    <linearGradient
       id="a">
      <stop
         offset="0"
         stop-color="#1e2d69"
         id="stop19" />
      <stop
         offset="1"
         stop-color="#78a7e0"
         id="stop21" />
    </linearGradient>
    <linearGradient
       id="g"
       x1="13.784"
       x2="33.075001"
       y1="-0.99699998"
       y2="55.702"
       gradientTransform="matrix(0.98543,0,0,1.14818,93.587155,-13.359669)"
       gradientUnits="userSpaceOnUse"
       xlink:href="#linearGradient8650" />
    <linearGradient
       id="h"
       x1="20.125"
       x2="28.563"
       y1="21.844"
       y2="42.469002"
       gradientTransform="matrix(1.0677,0,0,1.12153,91.577155,-15.999669)"
       gradientUnits="userSpaceOnUse"
       xlink:href="#c" />
    <linearGradient
       id="c">
      <stop
         offset="0"
         stop-color="#858585"
         id="stop7" />
      <stop
         offset=".5"
         stop-color="#cbcbcb"
         id="stop9" />
      <stop
         offset="1"
         stop-color="#6b6b6b"
         id="stop11" />
    </linearGradient>
    <radialGradient
       inkscape:collect="always"
       xlink:href="#linearGradient8662"
       id="radialGradient3325-3"
       gradientUnits="userSpaceOnUse"
       gradientTransform="matrix(1.4995438,0,0,0.20448318,12.116604,35.014982)"
       cx="11"
       cy="22"
       fx="11"
       fy="22"
       r="8" />
    <radialGradient
       inkscape:collect="always"
       xlink:href="#linearGradient8662"
       id="radialGradient3325"
       gradientUnits="userSpaceOnUse"
       gradientTransform="matrix(1.4995438,0,0,0.20448318,0.30629435,33.440275)"
       cx="11"
       cy="22"
       fx="11"
       fy="22"
       r="8" />
    <radialGradient
       cx="24.53788"
       cy="0.40010813"
       r="17.171415"
       fx="24.53788"
       fy="0.40010813"
       id="radialGradient3584-3"
       xlink:href="#linearGradient8650"
       gradientUnits="userSpaceOnUse"
       gradientTransform="matrix(0,-1.2926709,0.9837536,0,59.589693,62.115421)" />
    <radialGradient
       cx="11.319205"
       cy="22.454971"
       r="16.9562"
       fx="11.319205"
       fy="22.454971"
       id="radialGradient3587-5"
       xlink:href="#linearGradient2304"
       gradientUnits="userSpaceOnUse"
       gradientTransform="matrix(0,-0.5690524,0.6886286,0,57.230097,47.632812)" />
    <radialGradient
       cx="24.837126"
       cy="36.421127"
       r="15.644737"
       fx="24.837126"
       fy="36.421127"
       id="radialGradient1444-6"
       xlink:href="#linearGradient8662"
       gradientUnits="userSpaceOnUse"
       gradientTransform="matrix(0.7670311,0,0,0.20185009,53.949153,36.490495)" />
  </defs>
  <g
     id="layer1">
    <g
       transform="matrix(2.3640267e-2,0,0,1.5678654e-2,45.026494,39.862726)"
       id="g6707">
      <rect
         width="1339.6335"
         height="478.35718"
         x="-1559.2523"
         y="-150.69685"
         id="rect6709"
         style="opacity:0.40206185;fill:url(#linearGradient3395);fill-opacity:1;fill-rule:nonzero;stroke:none;stroke-width:1;stroke-linecap:round;stroke-linejoin:miter;marker:none;marker-start:none;marker-mid:none;marker-end:none;stroke-miterlimit:4;stroke-dasharray:none;stroke-dashoffset:0;stroke-opacity:1;visibility:visible;display:inline;overflow:visible" />
      <path
         d="M -219.61876,-150.68038 C -219.61876,-150.68038 -219.61876,327.65041 -219.61876,327.65041 C -76.744594,328.55086 125.78146,220.48075 125.78138,88.454235 C 125.78138,-43.572302 -33.655436,-150.68036 -219.61876,-150.68038 z"
         id="path6711"
         style="opacity:0.40206185;fill:url(#radialGradient3397);fill-opacity:1;fill-rule:nonzero;stroke:none;stroke-width:1;stroke-linecap:round;stroke-linejoin:miter;marker:none;marker-start:none;marker-mid:none;marker-end:none;stroke-miterlimit:4;stroke-dasharray:none;stroke-dashoffset:0;stroke-opacity:1;visibility:visible;display:inline;overflow:visible" />
      <path
         d="M -1559.2523,-150.68038 C -1559.2523,-150.68038 -1559.2523,327.65041 -1559.2523,327.65041 C -1702.1265,328.55086 -1904.6525,220.48075 -1904.6525,88.454235 C -1904.6525,-43.572302 -1745.2157,-150.68036 -1559.2523,-150.68038 z"
         id="path6713"
         style="opacity:0.40206185;fill:url(#radialGradient3399);fill-opacity:1;fill-rule:nonzero;stroke:none;stroke-width:1;stroke-linecap:round;stroke-linejoin:miter;marker:none;marker-start:none;marker-mid:none;marker-end:none;stroke-miterlimit:4;stroke-dasharray:none;stroke-dashoffset:0;stroke-opacity:1;visibility:visible;display:inline;overflow:visible" />
    </g>
    <rect
       width="43.5"
       height="37.5"
       rx="3.7492876"
       ry="3.7492876"
       x="2.2499986"
       y="3.7500017"
       id="rect5074"
       style="fill:url(#linearGradient3424);fill-opacity:1;stroke:#888a85;stroke-width:1;stroke-linecap:round;stroke-linejoin:round;stroke-miterlimit:4;stroke-dasharray:none;stroke-dashoffset:0;stroke-opacity:1" />
    <rect
       width="41.524662"
       height="35.372631"
       rx="2.2975452"
       ry="2.2975452"
       x="3.2376688"
       y="4.8136864"
       id="rect5076"
       style="fill:none;fill-opacity:1;stroke:#ffffff;stroke-width:1.02533853;stroke-linecap:round;stroke-linejoin:miter;stroke-miterlimit:4;stroke-dasharray:none;stroke-dashoffset:0;stroke-opacity:1" />
    <path
       d="M 40.481863,36.421127 A 15.644737,8.3968935 0 1 1 9.1923885,36.421127 A 15.644737,8.3968935 0 1 1 40.481863,36.421127 z"
       transform="matrix(0.7670311,0,0,0.3760787,15.949152,30.144897)"
       id="path8660"
       style="opacity:0.29946522;fill:url(#radialGradient1444);fill-opacity:1;fill-rule:evenodd;stroke:none;stroke-width:1;stroke-linecap:butt;stroke-linejoin:miter;marker:none;marker-start:none;marker-mid:none;marker-end:none;stroke-miterlimit:10;stroke-dasharray:none;stroke-dashoffset:0;stroke-opacity:1;visibility:visible;display:inline;overflow:visible" />
    <ellipse
       style="color:#000000;display:block;overflow:visible;visibility:visible;opacity:0.2;fill:url(#radialGradient3325);fill-opacity:1;fill-rule:nonzero;stroke:none;stroke-width:1.10748625;stroke-linecap:round;stroke-linejoin:miter;stroke-miterlimit:4;stroke-dasharray:none;stroke-dashoffset:17.85000038;stroke-opacity:1;marker:none;marker-start:none;marker-mid:none;marker-end:none"
       id="path3202"
       cx="16.801277"
       cy="37.9389"
       rx="11.99635"
       ry="1.6358653" />
    <ellipse
       style="color:#000000;display:block;overflow:visible;visibility:visible;opacity:0.2;fill:url(#radialGradient3325-3);fill-opacity:1;fill-rule:nonzero;stroke:none;stroke-width:1.10748625;stroke-linecap:round;stroke-linejoin:miter;stroke-miterlimit:4;stroke-dasharray:none;stroke-dashoffset:17.85000038;stroke-opacity:1;marker:none;marker-start:none;marker-mid:none;marker-end:none"
       id="path3202-5"
       cx="28.611584"
       cy="39.513607"
       rx="11.99635"
       ry="1.6358653" />
    <g
       id="g89"
       transform="matrix(0.37277482,0.19566039,-0.19566039,0.37277482,-9.9614066,-24.163274)">
      <path
         inkscape:connector-curvature="0"
         id="path50"
         d="m 96.712651,87.883002 c -2.284314,-2.991676 -3.060173,-5.498989 -3.072311,-9.928681 -0.01022,-3.763989 0.02815,-3.937649 1.515377,-6.841351 0.839279,-1.638634 1.725572,-3.043024 1.969546,-3.120872 0.243971,-0.07785 1.053328,0.657017 1.798578,1.633041 2.980379,3.903282 4.007479,9.505888 2.593489,14.146827 -0.76053,2.496154 -2.590952,5.864922 -3.186711,5.864922 -0.153328,0 -0.881414,-0.78925 -1.617968,-1.753886 z"
         style="fill:#eab12e;stroke-width:0.38149014" />
      <path
         inkscape:connector-curvature="0"
         id="path48"
         d="m 83.22724,69.690988 c -2.511129,-0.462022 -4.720743,-1.33844 -6.553393,-2.59934 -2.716575,-1.869051 -2.804066,-2.124447 -1.111477,-3.244551 5.219035,-3.453794 12.296692,-3.464055 17.692583,-0.02566 3.13284,1.996328 3.207925,2.247866 1.0755,3.602784 -3.047161,1.936128 -7.717755,2.889642 -11.103213,2.266755 z"
         style="fill:#eab12e;stroke-width:0.3784042" />
      <path
         sodipodi:nodetypes="sssssscccccccscs"
         inkscape:connector-curvature="0"
         id="path46"
         d="m 130.97026,34.51942 c -6.95614,-7.032716 -12.64752,-12.884084 -12.64752,-13.003041 0,-0.426138 13.86813,-4.778944 18.14265,-5.694455 5.39613,-1.155736 10.3568,-1.31899 12.2396,-0.402803 0.78167,0.380365 1.48248,1.093318 1.87212,1.904558 0.84358,1.756336 1.07879,6.160038 0.55668,10.422157 l -0.42582,3.476156 -6.98127,1.367018 -5.97007,1.367021 0.0187,0.841282 c 0.12739,0.960318 0.42029,1.348491 0.45575,1.382986 0.51446,-0.178371 1.82891,-0.485002 5.15629,-1.154443 3.32737,-0.669434 6.11336,-1.15357 6.19108,-1.075851 0.24062,0.240628 -1.79107,7.244912 -2.97019,9.625156 -1.06051,2.140811 -2.34961,3.887583 -2.78966,3.780079 -0.11047,-0.02696 -5.89224,-5.803104 -12.84838,-12.83582 z"
         style="fill:#eab12e;stroke-width:0.34889713" />
      <path
         inkscape:connector-curvature="0"
         id="path14"
         d="M 95.961968,89.485014 C 92.702989,86.144922 91.221936,82.437776 91.27767,77.76 c 0.02185,-1.833965 0.246455,-3.345437 0.689501,-4.64 0.361402,-1.056 0.660634,-2.017101 0.66496,-2.135779 0.0043,-0.118682 -0.820131,0.07749 -1.832131,0.435929 -5.748258,2.035984 -12.290166,0.517082 -16.810848,-3.903142 -2.540193,-2.483747 -2.546777,-2.782086 -0.105909,-4.799101 6.054489,-5.003139 15.197921,-5.047257 20.976264,-0.101209 0.683226,0.584816 1.3672,1.063302 1.519943,1.063302 0.152742,0 1.252291,-0.982099 2.443436,-2.182445 l 2.165724,-2.182448 -2.7354,-1.820371 -2.735399,-1.820371 0.721095,-1.101111 c 0.820188,-1.252425 0.273286,-1.420144 4.495864,1.378752 l 2.17476,1.441527 2.22524,-2.208183 c 1.22387,-1.214502 2.22523,-2.311414 2.22523,-2.437584 0,-0.126169 -2.34,-1.628905 -5.2,-3.339414 -2.86,-1.710509 -5.249149,-3.148291 -5.309219,-3.195069 -0.176538,-0.137478 0.24952,-1.204896 0.736662,-1.845587 0.425024,-0.558992 0.767619,-0.401507 6.091157,2.8 3.10245,1.865766 5.74332,3.392304 5.86861,3.392304 0.3179,0 5.33135,-5.07399 5.15573,-5.217984 -0.0786,-0.06446 -3.02294,-1.747683 -6.54294,-3.740493 -7.57303,-4.287392 -7.26948,-4.078102 -6.89672,-4.755126 1.03757,-1.88449 0.62335,-1.994362 7.64582,2.028038 3.56805,2.043744 6.84519,3.878938 7.28254,4.078205 0.73573,0.335222 0.94963,0.20921 2.86176,-1.685923 1.13663,-1.126525 2.0666,-2.140941 2.0666,-2.254259 0,-0.113316 -4.30966,-2.698906 -9.57703,-5.745757 l -9.57703,-5.539725 0.69237,-1.203023 0.69237,-1.203024 0.96466,0.58397 C 107.60216,27.89462 123.13523,36.8 123.31896,36.8 c 0.1226,0 0.9725,-0.759024 1.88867,-1.686723 l 1.66578,-1.686723 -5.60686,-5.593277 c -6.50833,-6.492575 -6.57207,-6.632589 -3.66655,-8.054732 2.60178,-1.273477 13.66775,-4.876127 18.08,-5.886148 3.06936,-0.702617 4.67629,-0.88438 8.00717,-0.905711 3.87041,-0.02479 4.28059,0.03163 5.76,0.792285 2.94803,1.515761 4.12581,4.407693 4.09747,10.061029 -0.049,9.770454 -4.56609,22.479187 -8.76087,24.64839 -1.81884,0.940564 -2.01403,0.806007 -9.16978,-6.321564 l -6.82002,-6.793172 -1.58105,1.593172 -1.58105,1.593174 6.20426,10.702602 c 3.41234,5.886432 6.13204,10.819456 6.04377,10.962278 -0.19381,0.313597 -2.06385,1.305139 -2.18532,1.158717 -0.0473,-0.05698 -2.62138,-4.497901 -5.72023,-9.86872 -3.09886,-5.370816 -5.81933,-10.018179 -6.04549,-10.327469 -0.37415,-0.511683 -0.60831,-0.363715 -2.59892,1.642269 l -2.18773,2.204614 4.54945,7.962855 c 2.5022,4.379571 4.59133,8.037888 4.64251,8.1296 0.0512,0.09171 -0.44648,0.462272 -1.1059,0.823475 l -1.19896,0.656729 -4.25879,-7.471865 c -2.34233,-4.109527 -4.39789,-7.557837 -4.56791,-7.662912 -0.33784,-0.2088 -5.36357,4.628733 -5.36107,5.16032 9.6e-4,0.180128 1.51215,2.847507 3.35846,5.927507 1.84631,3.08 3.35761,5.693776 3.35846,5.80839 9.6e-4,0.114618 -0.49026,0.498564 -1.09135,0.853213 l -1.09289,0.644823 -3.27551,-5.493213 c -1.80153,-3.021267 -3.33111,-5.558592 -3.39906,-5.638499 -0.068,-0.07991 -1.12607,0.857219 -2.35136,2.082508 l -2.22779,2.227799 2.39975,3.591257 c 1.31986,1.975191 2.39786,3.702061 2.39556,3.837492 -0.002,0.135427 -0.47031,0.549363 -1.04,0.919856 l -1.03581,0.673628 -2.35351,-3.517539 -2.3535,-3.517539 -2.43916,2.439152 -2.439148,2.439152 1.482636,1.524758 c 3.268082,3.360938 4.807442,7.083028 4.815832,11.644429 0.006,3.029328 -0.51754,5.072503 -2.03807,7.960333 -1.11032,2.108736 -3.232002,4.48 -4.008475,4.48 -0.307491,0 -1.452579,-0.915744 -2.544637,-2.034986 z m 3.568352,-2.723212 c 3.36801,-5.089412 2.9479,-12.302666 -0.96905,-16.63826 l -1.192224,-1.319648 -0.561315,0.718052 c -1.151904,1.473555 -2.257251,4.121686 -2.631577,6.304604 -0.464736,2.710128 -0.085,5.491847 1.104358,8.089732 C 96.062906,85.625254 97.893571,88 98.428608,88 c 0.15527,0 0.65104,-0.557187 1.101712,-1.238198 z M 90.2211,68.681293 c 1.149617,-0.417287 2.607678,-1.153395 3.240132,-1.635792 l 1.14992,-0.877088 -0.905574,-0.945875 c -0.498068,-0.520231 -1.962464,-1.468391 -3.254214,-2.107021 -2.038248,-1.007696 -2.722465,-1.179024 -5.177318,-1.296391 -3.3717,-0.161203 -6.426789,0.618733 -8.605332,2.196861 l -1.372854,0.99449 0.75207,0.813049 c 3.059811,3.307904 9.407162,4.587735 14.17317,2.857767 z M 144.56007,45.2 c 0.4619,-0.484 1.33605,-1.888 1.94257,-3.12 1.1232,-2.281504 2.90929,-7.494739 2.6549,-7.749123 -0.0771,-0.07707 -2.63704,0.362227 -5.68883,0.976217 -3.05179,0.613994 -5.57682,1.088967 -5.61117,1.055498 -0.0344,-0.03347 -0.19325,-0.642909 -0.35309,-1.35431 l -0.29062,-1.293453 6.3437,-1.242179 c 3.58913,-0.702796 6.40778,-1.409166 6.49128,-1.62675 0.0812,-0.211517 0.31963,-1.864567 0.52992,-3.673445 0.44957,-3.867022 0.21214,-7.198237 -0.65233,-9.152513 -0.93357,-2.1105 -2.03989,-2.463767 -7.0464,-2.250044 -3.25809,0.139084 -4.91997,0.408571 -8.96,1.452931 -4.49676,1.162427 -13.8847,4.235202 -14.34466,4.695163 C 119.39335,22.09998 143.17605,46.08 143.53853,46.08 c 0.1,0 0.55965,-0.396 1.02154,-0.88 z m -8.8175,-23.05469 -0.85717,-0.89469 1.533,-1.509942 1.53299,-1.509941 0.92751,0.968116 0.92751,0.968115 -1.40983,1.436516 c -0.77541,0.790084 -1.49691,1.436516 -1.60334,1.436516 -0.10642,0 -0.57923,-0.402611 -1.05067,-0.89469 z"
         style="fill:#294e56;stroke-width:0.31999999" />
    </g>
  </g>
  <g
     id="g120"
     transform="translate(-40)">
    <path
       style="display:inline;overflow:visible;visibility:visible;opacity:0.29946522;fill:url(#radialGradient1444-6);fill-opacity:1;fill-rule:evenodd;stroke:none;stroke-width:0.53708851;stroke-linecap:butt;stroke-linejoin:miter;stroke-miterlimit:10;stroke-dasharray:none;stroke-dashoffset:0;stroke-opacity:1;marker:none;marker-start:none;marker-mid:none;marker-end:none"
       id="path8660-1"
       d="m 85,43.842107 a 12,3.1578929 0 1 1 -24,0 12,3.1578929 0 1 1 24,0 z"
       inkscape:connector-curvature="0" />
    <path
       style="display:inline;overflow:visible;visibility:visible;fill:url(#radialGradient3587-5);fill-opacity:1;fill-rule:evenodd;stroke:#3a7304;stroke-width:1.06877363;stroke-linecap:round;stroke-linejoin:round;stroke-miterlimit:10;stroke-dasharray:none;stroke-dashoffset:0;stroke-opacity:1;marker:none;marker-start:none;marker-mid:none;marker-end:none"
       id="path8643"
       d="m 66.602918,44.874606 h 12.135203 v -8.743173 h 5.420722 L 72.599085,22.598584 61.227616,36.092306 l 5.378882,0.04475 z"
       inkscape:connector-curvature="0" />
    <path
       style="display:inline;overflow:visible;visibility:visible;opacity:0.5080214;fill:url(#radialGradient3584-3);fill-opacity:1;fill-rule:evenodd;stroke:none;stroke-width:1;stroke-linecap:round;stroke-linejoin:round;stroke-miterlimit:10;stroke-dasharray:none;stroke-dashoffset:0;stroke-opacity:1;marker:none;marker-start:none;marker-mid:none;marker-end:none"
       id="path8645"
       d="m 62.632965,35.652126 h 4.680187 l 0.04206,4.1443 c 3.571964,-6.947659 10.1009,-5.585943 10.480638,-9.870104 0,0 -5.235682,-6.028234 -5.235682,-6.028234 z"
       inkscape:connector-curvature="0" />
    <path
       style="display:inline;overflow:visible;visibility:visible;opacity:0.48128339;fill:none;fill-opacity:1;fill-rule:evenodd;stroke:#ffffff;stroke-width:1.01365042;stroke-linecap:butt;stroke-linejoin:miter;stroke-miterlimit:10;stroke-dasharray:none;stroke-dashoffset:0;stroke-opacity:1;marker:none;marker-start:none;marker-mid:none;marker-end:none"
       id="path8658"
       d="m 67.628527,43.793175 h 10.179082 v -8.31809 h 4.359121 l -9.57123,-11.163146 -9.415119,11.190943 4.366401,-0.01415 z"
       inkscape:connector-curvature="0" />
  </g>
</svg>
