<?xml version="1.0" encoding="UTF-8" standalone="no"?>
<svg
   xmlns:dc="http://purl.org/dc/elements/1.1/"
   xmlns:cc="http://creativecommons.org/ns#"
   xmlns:rdf="http://www.w3.org/1999/02/22-rdf-syntax-ns#"
   xmlns:svg="http://www.w3.org/2000/svg"
   xmlns="http://www.w3.org/2000/svg"
   xmlns:sodipodi="http://sodipodi.sourceforge.net/DTD/sodipodi-0.dtd"
   xmlns:inkscape="http://www.inkscape.org/namespaces/inkscape"
   version="1.1"
   x="0px"
   y="0px"
   viewBox="0 0 48 48"
   enable-background="new 0 0 100 100"
   xml:space="preserve"
   id="svg8"
   sodipodi:docname="surface.svg"
   width="48"
   height="48"
   inkscape:version="0.92.3 (2405546, 2018-03-11)"
   inkscape:export-filename="/home/luca/Dropbox/MATLAB scripts/VolumeCut/VolumeCut_resources/48px-surface.png"
   inkscape:export-xdpi="96"
   inkscape:export-ydpi="96"><metadata
     id="metadata14"><rdf:RDF><cc:Work
         rdf:about=""><dc:format>image/svg+xml</dc:format><dc:type
           rdf:resource="http://purl.org/dc/dcmitype/StillImage" /><dc:title></dc:title></cc:Work></rdf:RDF></metadata><defs
     id="defs12"><clipPath
       clipPathUnits="userSpaceOnUse"
       id="clipPath901"><rect
         style="opacity:1;fill:none;fill-opacity:1;stroke:#000000;stroke-width:0.17803182;stroke-miterlimit:4;stroke-dasharray:none;stroke-opacity:0.38495579"
         id="rect903"
         width="28.560282"
         height="28.560282"
         x="9.8088646"
         y="4.6462407" /></clipPath></defs><sodipodi:namedview
     pagecolor="#ffffff"
     bordercolor="#666666"
     borderopacity="1"
     objecttolerance="10"
     gridtolerance="10"
     guidetolerance="10"
     inkscape:pageopacity="0"
     inkscape:pageshadow="2"
     inkscape:window-width="1853"
     inkscape:window-height="1016"
     id="namedview10"
     showgrid="false"
     inkscape:zoom="10.680141"
     inkscape:cx="33.239921"
     inkscape:cy="20.447471"
     inkscape:window-x="67"
     inkscape:window-y="27"
     inkscape:window-maximized="1"
     inkscape:current-layer="svg8" /><g
     id="g877"
     transform="matrix(1.6850921,0,0,1.6850921,-16.716103,-7.9560497)"
     clip-path="url(#clipPath901)"><path
       style="stroke-width:0.47820148"
       inkscape:connector-curvature="0"
       id="path2"
       d="M 0.48249055,18.965906 23.784771,32.419627 47.087051,18.965906 23.784771,5.5121865 Z M 31.633492,11.700114 c -1.037698,0.594404 -2.054832,1.139076 -3.211601,1.482903 -0.0899,0.02678 -0.171674,0.04638 -0.256795,0.06839 -0.462421,-0.224755 -0.924842,-0.445206 -1.381524,-0.660396 -0.587231,-0.276879 -1.173984,-0.553758 -1.755955,-0.841635 -0.285965,-0.141548 -0.568582,-0.290746 -0.85359,-0.43851 1.168724,-0.622619 2.31832,-1.278233 3.445442,-1.9285871 z m 4.375543,2.526338 c -1.075954,0.615445 -2.234156,1.229456 -3.450223,1.541721 -0.612577,-0.407905 -1.235673,-0.80816 -1.869768,-1.18307 -0.665657,-0.394038 -1.352354,-0.754602 -2.042398,-1.09795 1.208893,-0.377301 2.299192,-0.973619 3.34741,-1.578065 z m 4.372675,2.524426 c -1.134773,0.653702 -2.290585,1.309794 -3.465049,1.929542 -0.318003,-0.200366 -0.636964,-0.399776 -0.949707,-0.604924 -0.624054,-0.408862 -1.239977,-0.83207 -1.854944,-1.254322 -0.386386,-0.264925 -0.778033,-0.532239 -1.173984,-0.798119 1.237584,-0.366781 2.401049,-0.998006 3.429661,-1.589542 z m 3.836132,2.215028 -3.476046,2.007013 c -1.116601,-0.647008 -2.30015,-1.33753 -3.477003,-2.070135 1.178766,-0.6274 2.337927,-1.289231 3.475089,-1.944845 z M 6.8291811,16.957939 c 1.1366847,0.655614 2.2953667,1.317923 3.4750899,1.944845 -1.176854,0.731649 -2.3604024,1.424084 -3.4770031,2.070135 L 3.3516992,18.965906 Z m 4.3721959,-2.524426 c 1.028133,0.591058 2.190641,1.224196 3.42727,1.590977 -0.394039,0.265401 -0.785207,0.531759 -1.169681,0.795727 -0.616402,0.42273 -1.232326,0.846417 -1.856856,1.255279 -0.312266,0.205148 -0.631226,0.404558 -0.948753,0.604924 C 9.4788949,18.060672 8.3230822,17.404101 7.1883097,16.7504 Z m 8.748696,-5.0507637 c 1.127121,0.6498757 2.276239,1.3059677 3.444964,1.9285867 -0.28453,0.147286 -0.568103,0.296963 -0.854068,0.438511 -0.582449,0.288355 -1.169681,0.565234 -1.756912,0.842112 -0.455726,0.215191 -0.917191,0.435163 -1.378656,0.658962 -0.08464,-0.02199 -0.166891,-0.0416 -0.256315,-0.06839 -1.15677,-0.343826 -2.173905,-0.88802 -3.21208,-1.484337 z m 10.556776,5.5107947 c 0.527935,0.312265 1.048217,0.644136 1.563719,0.982225 -0.424165,0.07795 -0.854068,0.11716 -1.289709,0.100422 -0.516936,-0.01673 -0.970272,-0.05595 -1.40926,-0.09421 -0.392125,-0.03395 -0.759384,-0.06456 -1.115166,-0.07269 -0.191281,-0.217581 -0.387343,-0.432294 -0.588188,-0.641268 -0.568103,-0.586753 -1.11421,-1.060651 -1.736349,-1.388697 0.240056,0.02056 0.479157,0.03634 0.726388,0.03634 0.438988,0 0.91193,-0.04974 1.468556,-0.184109 0.804335,0.393082 1.607236,0.804814 2.380009,1.261976 z M 19.445092,13.631091 c 0.556148,0.134375 1.02909,0.184108 1.467601,0.184108 0.253925,0 0.498764,-0.01673 0.745038,-0.03825 -0.633139,0.329959 -1.185462,0.803378 -1.739697,1.375307 -0.207539,0.213756 -0.407906,0.434207 -0.604925,0.657527 -0.354826,0.0081 -0.721606,0.03825 -1.113253,0.07221 -0.438989,0.03825 -0.893281,0.07795 -1.410695,0.0942 -0.435641,0.0153 -0.865066,-0.02439 -1.287318,-0.101378 0.514066,-0.337611 1.033872,-0.669005 1.561328,-0.980791 0.772774,-0.45764 1.57663,-0.869371 2.381921,-1.262931 z m 4.351156,-0.0048 c 1.581412,0.01578 2.55503,0.696738 3.612812,1.790863 0.125289,0.129593 0.246274,0.264445 0.367737,0.398342 -1.034828,0.05499 -2.013706,0.40934 -3.268986,1.645013 -0.250098,0.245796 -0.488721,0.501633 -0.722562,0.761775 -0.23384,-0.260142 -0.472463,-0.515979 -0.722562,-0.761775 -1.255279,-1.235673 -2.234636,-1.589542 -3.269942,-1.644057 0.126723,-0.139157 0.252491,-0.279269 0.38304,-0.414122 1.05539,-1.088865 2.029486,-1.76552 3.620463,-1.776041 z m -6.995132,2.708532 c 0.526978,-0.01721 1.006615,-0.05882 1.430301,-0.09516 0.269706,-0.02343 0.521718,-0.04447 0.763688,-0.05882 -0.405037,0.477724 -0.793815,0.964055 -1.173507,1.443212 -0.225232,0.284053 -0.449987,0.568104 -0.678568,0.849765 -0.779468,0.960228 -1.460427,1.700005 -2.142821,2.331232 -0.447118,-0.216626 -0.89328,-0.428469 -1.33466,-0.637443 -0.58771,-0.276879 -1.17542,-0.554235 -1.757869,-0.842591 -0.296485,-0.146807 -0.590579,-0.301745 -0.885151,-0.45477 0.259186,-0.164501 0.520284,-0.327089 0.776121,-0.49446 0.626922,-0.411253 1.245237,-0.835418 1.863074,-1.259104 0.468637,-0.321352 0.945403,-0.646529 1.426953,-0.968358 0.559496,0.131505 1.131902,0.204192 1.712439,0.186498 z m 0.620228,2.364705 c 0.229536,-0.282617 0.455248,-0.568102 0.681437,-0.85311 0.443771,-0.559974 0.899975,-1.131426 1.379611,-1.682791 1.108949,-0.0034 2.030921,0.274965 3.328282,1.552242 0.254403,0.250098 0.497808,0.512632 0.735952,0.77899 -0.48633,0.559495 -0.947317,1.135728 -1.395391,1.703831 -0.612576,0.776121 -1.246194,1.578065 -1.937195,2.308279 -0.267314,0.282139 -0.546106,0.546106 -0.828723,0.801465 -0.595839,-0.395472 -1.201242,-0.784249 -1.816687,-1.148161 -0.724954,-0.428469 -1.474774,-0.817247 -2.226985,-1.186896 0.6647,-0.625966 1.331313,-1.351875 2.079699,-2.273849 z m 3.053316,4.053236 c 0.702,-0.74169 1.340877,-1.550329 1.958236,-2.332188 0.435163,-0.55041 0.882281,-1.110384 1.351875,-1.653143 0.469593,0.542759 0.916713,1.102733 1.352354,1.653621 0.617836,0.78186 1.256235,1.590977 1.958235,2.332188 0.252968,0.267316 0.515501,0.517893 0.782338,0.76082 -0.435164,0.292181 -0.86698,0.587231 -1.290666,0.876543 -0.618315,0.424165 -1.236629,0.848329 -1.86403,1.260061 -0.308918,0.202757 -0.623574,0.399776 -0.937274,0.597751 -0.313701,-0.197975 -0.628836,-0.394994 -0.937754,-0.597751 -0.6274,-0.410775 -1.245715,-0.835896 -1.864029,-1.260061 -0.424165,-0.28979 -0.855025,-0.584362 -1.290188,-0.876543 0.265402,-0.242927 0.527934,-0.493504 0.780903,-0.761298 z m 6.88132,-0.245795 c -0.690524,-0.729735 -1.325097,-1.532158 -1.937194,-2.308279 -0.448076,-0.568103 -0.909061,-1.144814 -1.395393,-1.70431 0.238145,-0.266358 0.481549,-0.528413 0.735952,-0.778511 1.297839,-1.276798 2.219812,-1.556068 3.328761,-1.55272 0.478202,0.549931 0.933927,1.120426 1.376742,1.679443 0.229059,0.28979 0.459552,0.57958 0.692914,0.866979 0.74456,0.91719 1.407825,1.640709 2.070612,2.261415 -0.751732,0.369649 -1.501552,0.759384 -2.226506,1.187374 -0.615923,0.364868 -1.221326,0.752689 -1.816687,1.148162 -0.283574,-0.253925 -0.562843,-0.517414 -0.829201,-0.799553 z m 3.079617,-4.023109 c -0.232406,-0.286443 -0.461464,-0.575276 -0.690523,-0.86411 -0.378736,-0.477723 -0.767035,-0.963097 -1.170637,-1.439387 0.24197,0.01435 0.494461,0.03538 0.765123,0.0593 0.423208,0.03682 0.902844,0.07843 1.428865,0.09516 0.579103,0.01673 1.15151,-0.05691 1.710049,-0.18889 0.482984,0.322308 0.961185,0.648441 1.4303,0.970749 0.617837,0.423686 1.235194,0.847373 1.862117,1.258626 0.255838,0.167849 0.517414,0.330437 0.776121,0.494938 -0.294094,0.153025 -0.588188,0.307963 -0.885629,0.45477 -0.583884,0.288834 -1.172551,0.56667 -1.761694,0.844982 -0.43899,0.207062 -0.881804,0.418427 -1.325575,0.632661 -0.686219,-0.632661 -1.367656,-1.370526 -2.138517,-2.318798 z m -4.965166,-5.109105 c -0.425121,-0.04399 -0.90667,-0.0942 -1.477165,-0.10616 -0.0014,0 -0.0024,0 -0.0039,0 -0.01482,0 -0.02773,0.0048 -0.0416,0.0081 -0.05022,-0.0014 -0.09612,-0.0091 -0.148243,-0.0096 h -4.78e-4 c -4.78e-4,0 -4.78e-4,0 -9.41e-4,0 0,0 -4.78e-4,0 -9.41e-4,0 -0.05308,0 -0.100422,0.0076 -0.152546,0.0096 -0.02056,-0.0062 -0.04208,-0.01004 -0.06791,-0.0081 -0.570494,0.01148 -1.052043,0.06169 -1.477164,0.105682 -0.725432,0.07556 -1.336095,0.137723 -2.132301,0.0014 0.324699,-0.155411 0.648441,-0.308436 0.969793,-0.459547 0.589144,-0.278314 1.178766,-0.556149 1.763606,-0.845461 0.363434,-0.179804 0.723997,-0.368215 1.084561,-0.557104 0.360086,0.188889 0.720651,0.376822 1.084084,0.556626 0.58484,0.288834 1.173984,0.567147 1.763128,0.844504 0.321829,0.15159 0.647007,0.304614 0.971706,0.460507 -0.798118,0.136767 -1.408304,0.0746 -2.133736,-4.78e-4 z M 15.575485,11.90859 c 1.049175,0.604447 2.139475,1.201242 3.347889,1.578064 -0.690044,0.343349 -1.37722,0.704391 -2.042876,1.097951 -0.633139,0.37491 -1.25528,0.774687 -1.867377,1.182114 -1.218458,-0.311788 -2.375705,-0.924841 -3.452137,-1.540286 z m -4.902999,7.184976 c 0.357695,0.187456 0.715867,0.373954 1.076431,0.552802 0.584841,0.288834 1.174463,0.567624 1.764086,0.845938 0.397385,0.187934 0.798596,0.378258 1.200285,0.571451 -1.022873,0.900453 -2.083524,1.592411 -3.514302,2.433089 L 7.1859194,21.179961 c 1.1242516,-0.65131 2.3097122,-1.349007 3.4865666,-2.086394 z m 4.386064,2.138996 c 0.787119,0.385431 1.572326,0.789033 2.326928,1.235673 0.581972,0.344305 1.156292,0.710608 1.722004,1.085517 -1.144814,0.987008 -2.378096,1.783214 -3.535822,2.467998 l -4.016892,-2.319259 c 1.392522,-0.824897 2.460825,-1.535983 3.503782,-2.46991 z m 4.356894,2.527295 c 0.46003,0.308918 0.916234,0.619271 1.364309,0.926754 0.620227,0.426078 1.240933,0.85072 1.870246,1.264844 0.263967,0.17263 0.533194,0.340957 0.800988,0.509762 -1.187375,0.739299 -2.379053,1.436518 -3.502827,2.086871 l -4.021196,-2.32119 c 1.147683,-0.68574 2.359446,-1.481468 3.48848,-2.467041 z m 4.369327,2.913681 c 1.176375,0.736909 2.35849,1.432692 3.47796,2.081612 l -3.47796,2.007968 -3.477959,-2.007968 c 1.119948,-0.649398 2.302061,-1.345181 3.477959,-2.081612 z m 0.333307,-0.212321 c 0.267792,-0.169762 0.53702,-0.337132 0.800508,-0.509762 0.629314,-0.41221 1.249541,-0.838766 1.870247,-1.264366 0.448553,-0.307483 0.904756,-0.618314 1.364787,-0.926754 1.129512,0.98653 2.341274,1.781779 3.48848,2.466563 l -4.021675,2.32119 c -1.122339,-0.649875 -2.314017,-1.347093 -3.502347,-2.086871 z m 4.343025,-2.907465 c 0.566669,-0.374431 1.140511,-0.740734 1.722482,-1.085517 0.75508,-0.44664 1.540287,-0.850242 2.326928,-1.235194 1.042958,0.933448 2.110782,1.644056 3.503783,2.469431 l -4.016415,2.318799 c -1.157726,-0.684783 -2.391007,-1.480033 -3.536778,-2.467519 z m 4.399932,-2.492386 c 0.39882,-0.191759 0.79764,-0.382083 1.191678,-0.568104 0.590579,-0.277834 1.181636,-0.557582 1.767432,-0.846894 0.360564,-0.178848 0.718738,-0.365346 1.076432,-0.552802 1.176854,0.737387 2.361837,1.434606 3.486567,2.085915 l -4.013545,2.317365 c -1.405434,-0.827748 -2.474214,-1.527835 -3.508564,-2.435462 z m -9.076264,-9.94992 c -1.17781,-0.62166 -2.337449,-1.2801436 -3.476047,-1.9357579 l 3.476047,-2.0070117 3.476525,2.0070117 C 26.122698,9.8313024 24.96306,10.489786 23.784771,11.111447 Z" /><ellipse
       transform="rotate(-19.608339)"
       ry="0.85482293"
       rx="1.2960218"
       cy="30.189669"
       cx="28.34622"
       id="path823"
       style="opacity:1;fill:#ff9e41;fill-opacity:1;stroke:#000000;stroke-width:0.26429886;stroke-miterlimit:4;stroke-dasharray:none;stroke-opacity:1" /><ellipse
       style="opacity:1;fill:#ff9e41;fill-opacity:1;stroke:#000000;stroke-width:0.26429886;stroke-miterlimit:4;stroke-dasharray:none;stroke-opacity:1"
       id="ellipse825"
       cx="23.550522"
       cy="30.817013"
       rx="1.2960218"
       ry="0.85482293"
       transform="rotate(-19.608339)" /><ellipse
       transform="rotate(-19.608339)"
       ry="0.85482293"
       rx="1.2960218"
       cy="31.592371"
       cx="18.751793"
       id="ellipse827"
       style="opacity:1;fill:#ff9e41;fill-opacity:1;stroke:#000000;stroke-width:0.26429886;stroke-miterlimit:4;stroke-dasharray:none;stroke-opacity:1" /><ellipse
       style="opacity:1;fill:#ff9e41;fill-opacity:1;stroke:#000000;stroke-width:0.26429886;stroke-miterlimit:4;stroke-dasharray:none;stroke-opacity:1"
       id="ellipse829"
       cx="13.805602"
       cy="33.060665"
       rx="1.2960218"
       ry="0.85482293"
       transform="rotate(-19.608339)" /><ellipse
       transform="rotate(-31.446485)"
       ry="0.85482293"
       rx="1.2960218"
       cy="30.30435"
       cx="4.394187"
       id="ellipse831"
       style="opacity:1;fill:#ff9e41;fill-opacity:1;stroke:#000000;stroke-width:0.26429886;stroke-miterlimit:4;stroke-dasharray:none;stroke-opacity:1" /><ellipse
       style="opacity:1;fill:#ff9e41;fill-opacity:1;stroke:#000000;stroke-width:0.26429886;stroke-miterlimit:4;stroke-dasharray:none;stroke-opacity:1"
       id="ellipse833"
       cx="1.7256957"
       cy="25.873869"
       rx="1.2960218"
       ry="0.85482293"
       transform="rotate(-31.446485)" /><ellipse
       transform="rotate(-19.608339)"
       ry="0.85482293"
       rx="1.2960218"
       cy="21.391581"
       cx="3.6496911"
       id="ellipse835"
       style="opacity:1;fill:#ff9e41;fill-opacity:1;stroke:#000000;stroke-width:0.26429886;stroke-miterlimit:4;stroke-dasharray:none;stroke-opacity:1" /><ellipse
       style="opacity:1;fill:#ff9e41;fill-opacity:1;stroke:#000000;stroke-width:0.23933269;stroke-miterlimit:4;stroke-dasharray:none;stroke-opacity:1"
       id="ellipse837"
       cx="16.094839"
       cy="14.558636"
       rx="1.1735972"
       ry="0.77407479"
       transform="rotate(4.9117226)" /><ellipse
       transform="rotate(1.1910795)"
       ry="0.73370069"
       rx="1.1123849"
       cy="13.002566"
       cx="19.350224"
       id="ellipse839"
       style="opacity:1;fill:#ff9e41;fill-opacity:1;stroke:#000000;stroke-width:0.22684962;stroke-miterlimit:4;stroke-dasharray:none;stroke-opacity:1" /><ellipse
       style="opacity:1;fill:#ff9e41;fill-opacity:1;stroke:#000000;stroke-width:0.22859769;stroke-miterlimit:4;stroke-dasharray:none;stroke-opacity:1"
       id="ellipse841"
       cx="18.619003"
       cy="18.572754"
       rx="1.1209568"
       ry="0.73935449"
       transform="rotate(-19.608339)" /><ellipse
       transform="rotate(-42.090501)"
       ry="0.85482293"
       rx="1.2960218"
       cy="29.673483"
       cx="5.1047883"
       id="ellipse843"
       style="opacity:1;fill:#ff9e41;fill-opacity:1;stroke:#000000;stroke-width:0.26429886;stroke-miterlimit:4;stroke-dasharray:none;stroke-opacity:1" /><ellipse
       style="opacity:1;fill:#ff9e41;fill-opacity:1;stroke:#000000;stroke-width:0.23463628;stroke-miterlimit:4;stroke-dasharray:none;stroke-opacity:1"
       id="ellipse845"
       cx="28.373106"
       cy="15.683167"
       rx="1.1505678"
       ry="0.75888515"
       transform="rotate(0.89046681)" /><ellipse
       style="opacity:1;fill:#ff9e41;fill-opacity:1;stroke:#000000;stroke-width:0.23477711;stroke-miterlimit:4;stroke-dasharray:none;stroke-opacity:1"
       id="ellipse847"
       cx="28.465435"
       cy="22.634291"
       rx="1.1512583"
       ry="0.75934064"
       transform="rotate(-12.47067)" /><ellipse
       transform="rotate(-12.47067)"
       ry="0.75934064"
       rx="1.1512583"
       cy="19.260868"
       cx="25.13599"
       id="ellipse849"
       style="opacity:1;fill:#ff9e41;fill-opacity:1;stroke:#000000;stroke-width:0.23477711;stroke-miterlimit:4;stroke-dasharray:none;stroke-opacity:1" /></g></svg>